<?xml version="1.0" encoding="utf-8"?>
<!-- Generator: Adobe Illustrator 28.3.0, SVG Export Plug-In . SVG Version: 6.00 Build 0)  -->
<svg version="1.1" id="katman_1" xmlns="http://www.w3.org/2000/svg" xmlns:xlink="http://www.w3.org/1999/xlink" x="0px" y="0px"
	 viewBox="0 0 100 100" style="enable-background:new 0 0 100 100;" xml:space="preserve">
<style type="text/css">
	.st0{fill:url(#SVGID_1_);}
	.st1{fill:url(#SVGID_00000015313915066481570410000001431274173727746717_);}
</style>
<linearGradient id="SVGID_1_" gradientUnits="userSpaceOnUse" x1="49.8661" y1="21.4216" x2="-36.5027" y2="96.439" gradientTransform="matrix(1 8.384079e-03 8.384717e-03 -1 3.9927 102.6377)">
	<stop  offset="0" style="stop-color:#00B489"/>
	<stop  offset="0.218" style="stop-color:#07A07F"/>
	<stop  offset="0.6639" style="stop-color:#186B66"/>
	<stop  offset="0.8222" style="stop-color:#1F575C"/>
</linearGradient>
<path class="st0" d="M47.5,70.7c-9.9-4-18-11.6-22.4-21.4c-2.5-5.6-8.7-8.7-14.7-7.3c-3.9,0.9-7,3.2-8.7,6.5
	C0,51.7-0.1,55.6,1.4,59.3c8.3,20.9,28.5,31.5,43.9,36.7c2,0.7,4.1,1,6,1C58.8,97.2,65.8,93,69,86l7.5-16.3
	C70.7,82.2,47.5,70.7,47.5,70.7z"/>
<linearGradient id="SVGID_00000121993313004303924440000012299148111396847777_" gradientUnits="userSpaceOnUse" x1="69.2666" y1="81.1065" x2="69.2666" y2="23.8543" gradientTransform="matrix(1 8.384079e-03 8.384717e-03 -1 3.9927 102.6377)">
	<stop  offset="0" style="stop-color:#00B489"/>
	<stop  offset="0.3502" style="stop-color:#01B288"/>
	<stop  offset="0.5167" style="stop-color:#03AA84"/>
	<stop  offset="0.6445" style="stop-color:#089D7E"/>
	<stop  offset="0.7525" style="stop-color:#0E8B75"/>
	<stop  offset="0.8469" style="stop-color:#16736A"/>
	<stop  offset="0.931" style="stop-color:#1F575C"/>
</linearGradient>
<path style="fill:url(#SVGID_00000121993313004303924440000012299148111396847777_);" d="M92.5,4c-6.5-3-14.2-0.2-17.2,6.3l-27.8,60
	c0,0,23.2,11.6,29-1l22.3-48.2C101.8,14.8,99,7.1,92.5,4z"/>
</svg>
