<?xml version="1.0" encoding="utf-8"?>
<!-- Generator: Adobe Illustrator 28.3.0, SVG Export Plug-In . SVG Version: 6.00 Build 0)  -->
<svg version="1.1" id="katman_1" xmlns="http://www.w3.org/2000/svg" xmlns:xlink="http://www.w3.org/1999/xlink" x="0px" y="0px"
	 viewBox="0 0 741.4 172.3" style="enable-background:new 0 0 741.4 172.3;" xml:space="preserve">
<style type="text/css">
	.st0{fill:#0C0C0C;}
	.st1{fill:url(#SVGID_1_);}
	.st2{fill:url(#SVGID_00000088125671637300268130000003642594558106371735_);}
</style>
<path class="st0" d="M262.7,38.5l22.2,0.3l-13.2,16.8c6,6.7,8.1,14.4,8.1,22.9c0,9.6-3.6,23-16.3,28.8c12.8,6.4,16,15.7,16,25.5
	c0,21.3-16.3,34.5-38.7,34.5s-39.1-13.6-39.1-34.5h18.9c0,10,9.2,16.6,20.2,16.6s19.6-6,19.6-16.6s-10-15.5-19.6-15.5
	c-24.1,0-39.1-14.7-39.1-38.8s17.5-39.1,39.1-39.1c6.1,0,12.4,0.8,17.7,4.4L262.7,38.5z M220.6,78.5c0,13.5,9.1,21.5,20.2,21.5
	c11,0,20-8.1,20-21.5s-9.1-21.8-20-21.8C229.7,56.7,220.6,65,220.6,78.5z"/>
<path class="st0" d="M301.4,17.6c0,14.4,21.9,14.4,21.9,0C323.3,3,301.4,3,301.4,17.6z"/>
<path class="st0" d="M328.3,40.3c-24.6,0-39.9,18.2-39.9,40.2c0,22.2,15,40.2,40.1,40.2s40.2-18,40.2-40.2
	C368.8,58.5,352.9,40.3,328.3,40.3z M328.5,103.2c-13.9,0-21-11-21-22.7c0-11.6,7.2-22.9,21-22.9c12.8,0,21,11.3,21,22.9
	C349.5,92.3,342.4,103.2,328.5,103.2z"/>
<path class="st0" d="M333.7,17.6c0,14.4,21.9,14.4,21.9,0C355.6,3,333.7,3,333.7,17.6z"/>
<path class="st0" d="M401,50.8c6-9.6,13.9-11,21.8-11c8,0,15.7,3.1,19.9,7.4L434,63.8c-3.9-3.3-7.5-5-13.8-5
	c-10,0-19.3,5.3-19.3,19.6v40.7h-19.1V41.9L401,50.8z"/>
<path class="st0" d="M466.1,87.3c1.3,9.6,9.6,16.4,23,16.4c7,0,16.3-2.7,20.7-7.2l12.2,12.1c-8.1,8.5-21.5,12.5-33.2,12.5
	c-26.6,0-42.4-16.4-42.4-41.2c0-23.5,16-40.4,41-40.4c25.8,0,42,16,39,47.8H466.1z M508.1,71.5c-1.3-10-9.1-15-20-15
	c-10.3,0-18.8,5-21.6,15H508.1z"/>
<path class="st0" d="M619.5,41.7l-32.9,77.7h-20.7l-33-77.7h20.8l10.6,25.5l11.9,32.6L588,67.5l10.6-25.8H619.5z"/>
<path class="st0" d="M649.5,20.1c0,14.9-22.5,14.9-22.5,0S649.5,5.2,649.5,20.1z M628.7,41.6v77.5h19.1V41.6H628.7z"/>
<path class="st0" d="M721.9,119.1V78.7c0-11.7-6.4-20.7-18.6-20.7c-11.7,0-19.7,9.9-19.7,21.6v39.5h-18.9V41.7L683,52.2
	c7.8-7.7,15.7-11.6,25.4-11.6c18.2,0,32.7,13.6,32.7,37.9v40.6H721.9z"/>
<linearGradient id="SVGID_1_" gradientUnits="userSpaceOnUse" x1="93.9785" y1="30.604" x2="-63.2955" y2="167.2077" gradientTransform="matrix(1 8.384079e-03 8.384717e-03 -1 3.5232 173.5948)">
	<stop  offset="0" style="stop-color:#00B489"/>
	<stop  offset="0.218" style="stop-color:#07A07F"/>
	<stop  offset="0.6639" style="stop-color:#186B66"/>
	<stop  offset="0.8222" style="stop-color:#1F575C"/>
</linearGradient>
<path class="st1" d="M85.9,123.8c-18-7.2-32.7-21.2-40.7-39C40.6,74.6,29.3,69,18.4,71.5c-7.1,1.6-12.7,5.8-15.8,11.8
	c-3.2,6-3.4,13.1-0.7,19.9c15.2,38.1,51.9,57.4,80,66.9c3.6,1.2,7.4,1.8,11,1.9c13.5,0.1,26.2-7.5,32.1-20.3l13.7-29.6
	C128.1,144.9,85.9,123.8,85.9,123.8z"/>
<linearGradient id="SVGID_00000099628164600096458600000004470205200721937283_" gradientUnits="userSpaceOnUse" x1="129.3062" y1="139.2877" x2="129.3062" y2="35.0338" gradientTransform="matrix(1 8.384079e-03 8.384717e-03 -1 3.5232 173.5948)">
	<stop  offset="0" style="stop-color:#00B489"/>
	<stop  offset="0.3502" style="stop-color:#01B288"/>
	<stop  offset="0.5167" style="stop-color:#03AA84"/>
	<stop  offset="0.6445" style="stop-color:#089D7E"/>
	<stop  offset="0.7525" style="stop-color:#0E8B75"/>
	<stop  offset="0.8469" style="stop-color:#16736A"/>
	<stop  offset="0.931" style="stop-color:#1F575C"/>
</linearGradient>
<path style="fill:url(#SVGID_00000099628164600096458600000004470205200721937283_);" d="M167.8,2.5C156-2.9,141.9,2.2,136.5,14
	L85.9,123.3c0,0,42.2,21.1,52.8-1.8l40.6-87.7C184.7,22,179.6,8,167.8,2.5z"/>
</svg>
